<mxfile host="app.diagrams.net" agent="Mozilla/5.0 (Windows NT 10.0; Win64; x64) AppleWebKit/537.36 (KHTML, like Gecko) Chrome/141.0.0.0 Safari/537.36" version="28.2.8">
  <diagram name="1 oldal" id="bDDifhVM9WBcjqxZVbRq">
    <mxGraphModel dx="2595" dy="1638" grid="1" gridSize="10" guides="1" tooltips="1" connect="1" arrows="1" fold="1" page="1" pageScale="1" pageWidth="1169" pageHeight="827" math="0" shadow="0">
      <root>
        <mxCell id="0" />
        <mxCell id="1" parent="0" />
        <mxCell id="b0E-b6A70vQdtOUJ7RUX-14" style="edgeStyle=orthogonalEdgeStyle;rounded=0;orthogonalLoop=1;jettySize=auto;html=1;exitX=0;exitY=0.5;exitDx=0;exitDy=0;endArrow=doubleBlock;endFill=1;entryX=1;entryY=0.5;entryDx=0;entryDy=0;" parent="1" source="b0E-b6A70vQdtOUJ7RUX-5" target="b0E-b6A70vQdtOUJ7RUX-25" edge="1">
          <mxGeometry relative="1" as="geometry">
            <mxPoint x="460" y="130" as="targetPoint" />
          </mxGeometry>
        </mxCell>
        <mxCell id="b0E-b6A70vQdtOUJ7RUX-15" style="edgeStyle=orthogonalEdgeStyle;rounded=0;orthogonalLoop=1;jettySize=auto;html=1;exitX=1;exitY=0.5;exitDx=0;exitDy=0;entryX=0;entryY=0.5;entryDx=0;entryDy=0;endArrow=doubleBlock;endFill=1;" parent="1" source="b0E-b6A70vQdtOUJ7RUX-5" target="b0E-b6A70vQdtOUJ7RUX-30" edge="1">
          <mxGeometry relative="1" as="geometry" />
        </mxCell>
        <mxCell id="b0E-b6A70vQdtOUJ7RUX-5" value="Fejlesztés" style="rhombus;whiteSpace=wrap;html=1;" parent="1" vertex="1">
          <mxGeometry x="730" y="280" width="80" height="80" as="geometry" />
        </mxCell>
        <mxCell id="b0E-b6A70vQdtOUJ7RUX-8" style="edgeStyle=orthogonalEdgeStyle;rounded=0;orthogonalLoop=1;jettySize=auto;html=1;exitX=1;exitY=0.5;exitDx=0;exitDy=0;entryX=0;entryY=0.5;entryDx=0;entryDy=0;endArrow=classic;endFill=1;" parent="1" source="b0E-b6A70vQdtOUJ7RUX-6" target="b0E-b6A70vQdtOUJ7RUX-29" edge="1">
          <mxGeometry relative="1" as="geometry" />
        </mxCell>
        <mxCell id="b0E-b6A70vQdtOUJ7RUX-6" value="J-M" style="rhombus;whiteSpace=wrap;html=1;" parent="1" vertex="1">
          <mxGeometry x="730" y="-30" width="80" height="80" as="geometry" />
        </mxCell>
        <mxCell id="b0E-b6A70vQdtOUJ7RUX-11" style="edgeStyle=orthogonalEdgeStyle;rounded=0;orthogonalLoop=1;jettySize=auto;html=1;exitX=0;exitY=0.5;exitDx=0;exitDy=0;entryX=1;entryY=0.5;entryDx=0;entryDy=0;endArrow=classic;endFill=1;" parent="1" source="b0E-b6A70vQdtOUJ7RUX-9" target="b0E-b6A70vQdtOUJ7RUX-32" edge="1">
          <mxGeometry relative="1" as="geometry" />
        </mxCell>
        <mxCell id="b0E-b6A70vQdtOUJ7RUX-9" value="l-j" style="rhombus;whiteSpace=wrap;html=1;" parent="1" vertex="1">
          <mxGeometry x="40" y="-30" width="80" height="80" as="geometry" />
        </mxCell>
        <mxCell id="b0E-b6A70vQdtOUJ7RUX-16" style="edgeStyle=orthogonalEdgeStyle;rounded=0;orthogonalLoop=1;jettySize=auto;html=1;exitX=1;exitY=0.5;exitDx=0;exitDy=0;entryX=0;entryY=0.5;entryDx=0;entryDy=0;endArrow=doubleBlock;endFill=1;" parent="1" source="b0E-b6A70vQdtOUJ7RUX-13" target="b0E-b6A70vQdtOUJ7RUX-25" edge="1">
          <mxGeometry relative="1" as="geometry">
            <Array as="points">
              <mxPoint x="290" y="320" />
              <mxPoint x="290" y="320" />
            </Array>
          </mxGeometry>
        </mxCell>
        <mxCell id="b0E-b6A70vQdtOUJ7RUX-17" style="edgeStyle=orthogonalEdgeStyle;rounded=0;orthogonalLoop=1;jettySize=auto;html=1;exitX=0;exitY=0.5;exitDx=0;exitDy=0;entryX=1;entryY=0.5;entryDx=0;entryDy=0;endArrow=doubleBlock;endFill=1;" parent="1" source="b0E-b6A70vQdtOUJ7RUX-13" target="b0E-b6A70vQdtOUJ7RUX-31" edge="1">
          <mxGeometry relative="1" as="geometry" />
        </mxCell>
        <mxCell id="b0E-b6A70vQdtOUJ7RUX-13" value="Tesztelés" style="rhombus;whiteSpace=wrap;html=1;" parent="1" vertex="1">
          <mxGeometry x="40" y="280" width="80" height="80" as="geometry" />
        </mxCell>
        <mxCell id="b0E-b6A70vQdtOUJ7RUX-19" value="kiadás" style="rhombus;whiteSpace=wrap;html=1;" parent="1" vertex="1">
          <mxGeometry x="380" y="-30" width="80" height="80" as="geometry" />
        </mxCell>
        <mxCell id="b0E-b6A70vQdtOUJ7RUX-23" value="" style="endArrow=none;html=1;rounded=0;exitX=0.5;exitY=0;exitDx=0;exitDy=0;entryX=0.5;entryY=1;entryDx=0;entryDy=0;endFill=0;startArrow=doubleBlock;startFill=1;" parent="1" source="b0E-b6A70vQdtOUJ7RUX-25" target="b0E-b6A70vQdtOUJ7RUX-19" edge="1">
          <mxGeometry width="50" height="50" relative="1" as="geometry">
            <mxPoint x="470" y="330" as="sourcePoint" />
            <mxPoint x="520" y="280" as="targetPoint" />
          </mxGeometry>
        </mxCell>
        <mxCell id="b0E-b6A70vQdtOUJ7RUX-24" value="" style="endArrow=none;html=1;rounded=0;exitX=0.5;exitY=1;exitDx=0;exitDy=0;endFill=0;startArrow=doubleBlock;startFill=1;" parent="1" source="b0E-b6A70vQdtOUJ7RUX-28" target="b0E-b6A70vQdtOUJ7RUX-19" edge="1">
          <mxGeometry width="50" height="50" relative="1" as="geometry">
            <mxPoint x="590" y="-177" as="sourcePoint" />
            <mxPoint x="420" y="23" as="targetPoint" />
          </mxGeometry>
        </mxCell>
        <mxCell id="b0E-b6A70vQdtOUJ7RUX-25" value="Játék" style="rounded=0;whiteSpace=wrap;html=1;" parent="1" vertex="1">
          <mxGeometry x="360" y="290" width="120" height="60" as="geometry" />
        </mxCell>
        <mxCell id="b0E-b6A70vQdtOUJ7RUX-28" value="kiado" style="rounded=0;whiteSpace=wrap;html=1;" parent="1" vertex="1">
          <mxGeometry x="360" y="-227" width="120" height="60" as="geometry" />
        </mxCell>
        <mxCell id="b0E-b6A70vQdtOUJ7RUX-29" value="Motor" style="rounded=0;whiteSpace=wrap;html=1;" parent="1" vertex="1">
          <mxGeometry x="1020" y="-20" width="120" height="60" as="geometry" />
        </mxCell>
        <mxCell id="b0E-b6A70vQdtOUJ7RUX-30" value="Fejlesztő" style="rounded=0;whiteSpace=wrap;html=1;" parent="1" vertex="1">
          <mxGeometry x="1020" y="290" width="120" height="60" as="geometry" />
        </mxCell>
        <mxCell id="b0E-b6A70vQdtOUJ7RUX-31" value="Tesztelő" style="rounded=0;whiteSpace=wrap;html=1;" parent="1" vertex="1">
          <mxGeometry x="-300" y="290" width="120" height="60" as="geometry" />
        </mxCell>
        <mxCell id="b0E-b6A70vQdtOUJ7RUX-32" value="leírás" style="rounded=0;whiteSpace=wrap;html=1;" parent="1" vertex="1">
          <mxGeometry x="-300" y="-20" width="120" height="60" as="geometry" />
        </mxCell>
        <mxCell id="b0E-b6A70vQdtOUJ7RUX-36" value="&lt;code data-end=&quot;597&quot; data-start=&quot;592&quot;&gt;cim&lt;/code&gt;" style="ellipse;whiteSpace=wrap;html=1;" parent="1" vertex="1">
          <mxGeometry x="340" y="540" width="70" height="50" as="geometry" />
        </mxCell>
        <mxCell id="b0E-b6A70vQdtOUJ7RUX-38" value="&lt;code data-end=&quot;580&quot; data-start=&quot;571&quot;&gt;&lt;u&gt;j_ID&lt;/u&gt;&lt;/code&gt;" style="ellipse;whiteSpace=wrap;html=1;" parent="1" vertex="1">
          <mxGeometry x="110" y="540" width="70" height="50" as="geometry" />
        </mxCell>
        <mxCell id="b0E-b6A70vQdtOUJ7RUX-41" value="&lt;code data-end=&quot;676&quot; data-start=&quot;661&quot;&gt;megjelenes&lt;/code&gt;" style="ellipse;whiteSpace=wrap;html=1;" parent="1" vertex="1">
          <mxGeometry x="440" y="540" width="70" height="50" as="geometry" />
        </mxCell>
        <mxCell id="b0E-b6A70vQdtOUJ7RUX-42" value="&lt;code data-end=&quot;710&quot; data-start=&quot;700&quot;&gt;platform&lt;/code&gt;" style="ellipse;whiteSpace=wrap;html=1;" parent="1" vertex="1">
          <mxGeometry x="550" y="540" width="70" height="50" as="geometry" />
        </mxCell>
        <mxCell id="b0E-b6A70vQdtOUJ7RUX-43" value="&lt;code data-end=&quot;754&quot; data-start=&quot;745&quot;&gt;&lt;u&gt;m_ID&lt;/u&gt;&lt;/code&gt;" style="ellipse;whiteSpace=wrap;html=1;" parent="1" vertex="1">
          <mxGeometry x="660" y="540" width="70" height="50" as="geometry" />
        </mxCell>
        <mxCell id="b0E-b6A70vQdtOUJ7RUX-47" value="tapasztalat" style="ellipse;whiteSpace=wrap;html=1;" parent="1" vertex="1">
          <mxGeometry x="1210" y="200" width="70" height="50" as="geometry" />
        </mxCell>
        <mxCell id="b0E-b6A70vQdtOUJ7RUX-48" value="&lt;code data-end=&quot;1097&quot; data-start=&quot;1084&quot;&gt;&lt;font&gt;&lt;u&gt;f_ID&lt;/u&gt;&lt;/font&gt;&lt;/code&gt;" style="ellipse;whiteSpace=wrap;html=1;" parent="1" vertex="1">
          <mxGeometry x="970" y="400" width="70" height="50" as="geometry" />
        </mxCell>
        <mxCell id="b0E-b6A70vQdtOUJ7RUX-49" value="email" style="ellipse;whiteSpace=wrap;html=1;" parent="1" vertex="1">
          <mxGeometry x="1210" y="400" width="70" height="50" as="geometry" />
        </mxCell>
        <mxCell id="b0E-b6A70vQdtOUJ7RUX-50" value="nev" style="ellipse;whiteSpace=wrap;html=1;" parent="1" vertex="1">
          <mxGeometry x="1210" y="295" width="70" height="50" as="geometry" />
        </mxCell>
        <mxCell id="b0E-b6A70vQdtOUJ7RUX-51" value="&lt;code data-end=&quot;1475&quot; data-start=&quot;1466&quot;&gt;&lt;u&gt;m_ID&lt;/u&gt;&lt;/code&gt;" style="ellipse;whiteSpace=wrap;html=1;" parent="1" vertex="1">
          <mxGeometry x="950" y="-120" width="70" height="50" as="geometry" />
        </mxCell>
        <mxCell id="b0E-b6A70vQdtOUJ7RUX-52" value="&lt;code data-end=&quot;1492&quot; data-start=&quot;1487&quot;&gt;nev&lt;/code&gt;" style="ellipse;whiteSpace=wrap;html=1;" parent="1" vertex="1">
          <mxGeometry x="1080" y="-120" width="70" height="50" as="geometry" />
        </mxCell>
        <mxCell id="b0E-b6A70vQdtOUJ7RUX-53" value="&lt;code data-end=&quot;1545&quot; data-start=&quot;1537&quot;&gt;verzio&lt;/code&gt;" style="ellipse;whiteSpace=wrap;html=1;" parent="1" vertex="1">
          <mxGeometry x="1210" y="-120" width="70" height="50" as="geometry" />
        </mxCell>
        <mxCell id="b0E-b6A70vQdtOUJ7RUX-54" value="&lt;code data-end=&quot;1584&quot; data-start=&quot;1570&quot;&gt;licenc&lt;/code&gt;" style="ellipse;whiteSpace=wrap;html=1;" parent="1" vertex="1">
          <mxGeometry x="1210" y="-15" width="70" height="50" as="geometry" />
        </mxCell>
        <mxCell id="b0E-b6A70vQdtOUJ7RUX-55" value="&lt;code data-end=&quot;1632&quot; data-start=&quot;1617&quot;&gt;ceg&lt;/code&gt;" style="ellipse;whiteSpace=wrap;html=1;" parent="1" vertex="1">
          <mxGeometry x="1210" y="90" width="70" height="50" as="geometry" />
        </mxCell>
        <mxCell id="b0E-b6A70vQdtOUJ7RUX-57" value="&lt;code data-end=&quot;2420&quot; data-start=&quot;2410&quot;&gt;&lt;u&gt;k_ID&lt;/u&gt;&lt;/code&gt;" style="ellipse;whiteSpace=wrap;html=1;" parent="1" vertex="1">
          <mxGeometry x="170" y="-360" width="70" height="50" as="geometry" />
        </mxCell>
        <mxCell id="b0E-b6A70vQdtOUJ7RUX-58" value="nev" style="ellipse;whiteSpace=wrap;html=1;" parent="1" vertex="1">
          <mxGeometry x="280" y="-360" width="70" height="50" as="geometry" />
        </mxCell>
        <mxCell id="b0E-b6A70vQdtOUJ7RUX-59" value="&lt;code data-end=&quot;2460&quot; data-start=&quot;2453&quot;&gt;orszag&lt;/code&gt;" style="ellipse;whiteSpace=wrap;html=1;" parent="1" vertex="1">
          <mxGeometry x="600" y="-360" width="70" height="50" as="geometry" />
        </mxCell>
        <mxCell id="b0E-b6A70vQdtOUJ7RUX-60" value="&lt;code data-end=&quot;2526&quot; data-start=&quot;2516&quot;&gt;alapitas&lt;/code&gt;" style="ellipse;whiteSpace=wrap;html=1;" parent="1" vertex="1">
          <mxGeometry x="490" y="-360" width="70" height="50" as="geometry" />
        </mxCell>
        <mxCell id="b0E-b6A70vQdtOUJ7RUX-61" value="&lt;code data-end=&quot;2579&quot; data-start=&quot;2557&quot;&gt;email&lt;/code&gt;" style="ellipse;whiteSpace=wrap;html=1;" parent="1" vertex="1">
          <mxGeometry x="385" y="-360" width="70" height="50" as="geometry" />
        </mxCell>
        <mxCell id="b0E-b6A70vQdtOUJ7RUX-77" value="&lt;code data-end=&quot;1545&quot; data-start=&quot;1537&quot;&gt;nyelv&lt;/code&gt;" style="ellipse;whiteSpace=wrap;html=1;" parent="1" vertex="1">
          <mxGeometry x="-440" y="-120" width="70" height="50" as="geometry" />
        </mxCell>
        <mxCell id="b0E-b6A70vQdtOUJ7RUX-78" value="&lt;code data-end=&quot;1584&quot; data-start=&quot;1570&quot;&gt;tartalom&lt;/code&gt;" style="ellipse;whiteSpace=wrap;html=1;" parent="1" vertex="1">
          <mxGeometry x="-440" y="-15" width="70" height="50" as="geometry" />
        </mxCell>
        <mxCell id="b0E-b6A70vQdtOUJ7RUX-79" value="&lt;code data-end=&quot;1632&quot; data-start=&quot;1617&quot;&gt;korosztaly&lt;/code&gt;" style="ellipse;whiteSpace=wrap;html=1;" parent="1" vertex="1">
          <mxGeometry x="-440" y="90" width="70" height="50" as="geometry" />
        </mxCell>
        <mxCell id="b0E-b6A70vQdtOUJ7RUX-80" value="&lt;code data-end=&quot;2420&quot; data-start=&quot;2410&quot;&gt;&lt;u&gt;t_ID&lt;/u&gt;&lt;/code&gt;" style="ellipse;whiteSpace=wrap;html=1;" parent="1" vertex="1">
          <mxGeometry x="-440" y="190" width="70" height="50" as="geometry" />
        </mxCell>
        <mxCell id="b0E-b6A70vQdtOUJ7RUX-81" value="nev" style="ellipse;whiteSpace=wrap;html=1;" parent="1" vertex="1">
          <mxGeometry x="-440" y="295" width="70" height="50" as="geometry" />
        </mxCell>
        <mxCell id="b0E-b6A70vQdtOUJ7RUX-82" value="&lt;code data-end=&quot;2460&quot; data-start=&quot;2453&quot;&gt;&lt;font style=&quot;font-size: 11px;&quot;&gt;tapasztalat&lt;/font&gt;&lt;/code&gt;" style="ellipse;whiteSpace=wrap;html=1;" parent="1" vertex="1">
          <mxGeometry x="-440" y="400" width="70" height="50" as="geometry" />
        </mxCell>
        <mxCell id="b0E-b6A70vQdtOUJ7RUX-83" value="&lt;code data-end=&quot;2152&quot; data-start=&quot;2137&quot;&gt;&lt;font style=&quot;font-size: 9px;&quot;&gt;specializacio&lt;/font&gt;&lt;/code&gt;" style="ellipse;whiteSpace=wrap;html=1;" parent="1" vertex="1">
          <mxGeometry x="-310" y="400" width="70" height="50" as="geometry" />
        </mxCell>
        <mxCell id="b0E-b6A70vQdtOUJ7RUX-84" value="email" style="ellipse;whiteSpace=wrap;html=1;" parent="1" vertex="1">
          <mxGeometry x="-180" y="400" width="70" height="50" as="geometry" />
        </mxCell>
        <mxCell id="b0E-b6A70vQdtOUJ7RUX-85" value="&lt;code data-end=&quot;1791&quot; data-start=&quot;1786&quot;&gt;&lt;u&gt;j_ID&lt;/u&gt;&lt;/code&gt;" style="ellipse;whiteSpace=wrap;html=1;" parent="1" vertex="1">
          <mxGeometry x="-310" y="-120" width="70" height="50" as="geometry" />
        </mxCell>
        <mxCell id="b0E-b6A70vQdtOUJ7RUX-86" value="&lt;u&gt;l_ID&lt;/u&gt;" style="ellipse;whiteSpace=wrap;html=1;" parent="1" vertex="1">
          <mxGeometry x="-180" y="-120" width="70" height="50" as="geometry" />
        </mxCell>
        <mxCell id="b0E-b6A70vQdtOUJ7RUX-88" value="&lt;code data-end=&quot;1097&quot; data-start=&quot;1084&quot;&gt;&lt;font&gt;&lt;u&gt;f_ID&lt;/u&gt;&lt;/font&gt;&lt;/code&gt;" style="ellipse;whiteSpace=wrap;html=1;" parent="1" vertex="1">
          <mxGeometry x="660" y="190" width="70" height="50" as="geometry" />
        </mxCell>
        <mxCell id="b0E-b6A70vQdtOUJ7RUX-89" value="&lt;code data-end=&quot;1097&quot; data-start=&quot;1084&quot;&gt;&lt;font&gt;&lt;u&gt;j_ID&lt;/u&gt;&lt;/font&gt;&lt;/code&gt;" style="ellipse;whiteSpace=wrap;html=1;" parent="1" vertex="1">
          <mxGeometry x="810" y="190" width="70" height="50" as="geometry" />
        </mxCell>
        <mxCell id="b0E-b6A70vQdtOUJ7RUX-90" value="&lt;code data-end=&quot;1097&quot; data-start=&quot;1084&quot;&gt;&lt;font&gt;feladat&lt;/font&gt;&lt;/code&gt;" style="ellipse;whiteSpace=wrap;html=1;" parent="1" vertex="1">
          <mxGeometry x="810" y="400" width="70" height="50" as="geometry" />
        </mxCell>
        <mxCell id="b0E-b6A70vQdtOUJ7RUX-91" value="&lt;code data-end=&quot;1097&quot; data-start=&quot;1084&quot;&gt;&lt;font&gt;munkaora&lt;/font&gt;&lt;/code&gt;" style="ellipse;whiteSpace=wrap;html=1;" parent="1" vertex="1">
          <mxGeometry x="660" y="400" width="70" height="50" as="geometry" />
        </mxCell>
        <mxCell id="b0E-b6A70vQdtOUJ7RUX-109" value="" style="ellipse;whiteSpace=wrap;html=1;fillColor=none;" parent="1" vertex="1">
          <mxGeometry x="540" y="532.5" width="90" height="65" as="geometry" />
        </mxCell>
        <mxCell id="b0E-b6A70vQdtOUJ7RUX-111" value="&lt;code data-end=&quot;2579&quot; data-start=&quot;2557&quot;&gt;&lt;u&gt;k_ID&lt;/u&gt;&lt;/code&gt;" style="ellipse;whiteSpace=wrap;html=1;" parent="1" vertex="1">
          <mxGeometry x="300" y="-120" width="70" height="50" as="geometry" />
        </mxCell>
        <mxCell id="b0E-b6A70vQdtOUJ7RUX-112" value="&lt;code data-end=&quot;2579&quot; data-start=&quot;2557&quot;&gt;&lt;u&gt;j_ID&lt;/u&gt;&lt;/code&gt;" style="ellipse;whiteSpace=wrap;html=1;" parent="1" vertex="1">
          <mxGeometry x="460" y="-120" width="70" height="50" as="geometry" />
        </mxCell>
        <mxCell id="b0E-b6A70vQdtOUJ7RUX-113" value="&lt;code data-end=&quot;2579&quot; data-start=&quot;2557&quot;&gt;ar&lt;/code&gt;" style="ellipse;whiteSpace=wrap;html=1;" parent="1" vertex="1">
          <mxGeometry x="300" y="90" width="70" height="50" as="geometry" />
        </mxCell>
        <mxCell id="b0E-b6A70vQdtOUJ7RUX-114" value="&lt;code data-end=&quot;2579&quot; data-start=&quot;2557&quot;&gt;datum&lt;/code&gt;" style="ellipse;whiteSpace=wrap;html=1;" parent="1" vertex="1">
          <mxGeometry x="460" y="90" width="70" height="50" as="geometry" />
        </mxCell>
        <mxCell id="b0E-b6A70vQdtOUJ7RUX-115" value="&lt;code data-end=&quot;2579&quot; data-start=&quot;2557&quot;&gt;&lt;u&gt;t_ID&lt;/u&gt;&lt;/code&gt;" style="ellipse;whiteSpace=wrap;html=1;" parent="1" vertex="1">
          <mxGeometry x="-30" y="190" width="70" height="50" as="geometry" />
        </mxCell>
        <mxCell id="b0E-b6A70vQdtOUJ7RUX-116" value="&lt;code data-end=&quot;2579&quot; data-start=&quot;2557&quot;&gt;&lt;u&gt;j_ID&lt;/u&gt;&lt;/code&gt;" style="ellipse;whiteSpace=wrap;html=1;" parent="1" vertex="1">
          <mxGeometry x="120" y="190" width="70" height="50" as="geometry" />
        </mxCell>
        <mxCell id="b0E-b6A70vQdtOUJ7RUX-117" value="&lt;code data-end=&quot;2579&quot; data-start=&quot;2557&quot;&gt;datum&lt;/code&gt;" style="ellipse;whiteSpace=wrap;html=1;" parent="1" vertex="1">
          <mxGeometry x="-30" y="400" width="70" height="50" as="geometry" />
        </mxCell>
        <mxCell id="b0E-b6A70vQdtOUJ7RUX-118" value="&lt;code data-end=&quot;2579&quot; data-start=&quot;2557&quot;&gt;eredmeny&lt;/code&gt;" style="ellipse;whiteSpace=wrap;html=1;" parent="1" vertex="1">
          <mxGeometry x="120" y="400" width="70" height="50" as="geometry" />
        </mxCell>
        <mxCell id="b0E-b6A70vQdtOUJ7RUX-123" value="" style="endArrow=none;html=1;rounded=0;exitX=0.5;exitY=1;exitDx=0;exitDy=0;entryX=0.5;entryY=0;entryDx=0;entryDy=0;" parent="1" source="b0E-b6A70vQdtOUJ7RUX-30" target="b0E-b6A70vQdtOUJ7RUX-48" edge="1">
          <mxGeometry width="50" height="50" relative="1" as="geometry">
            <mxPoint x="1100" y="527.5" as="sourcePoint" />
            <mxPoint x="1150" y="477.5" as="targetPoint" />
          </mxGeometry>
        </mxCell>
        <mxCell id="b0E-b6A70vQdtOUJ7RUX-124" value="" style="endArrow=none;html=1;rounded=0;entryX=1;entryY=0.5;entryDx=0;entryDy=0;exitX=0;exitY=0.5;exitDx=0;exitDy=0;" parent="1" source="b0E-b6A70vQdtOUJ7RUX-50" target="b0E-b6A70vQdtOUJ7RUX-30" edge="1">
          <mxGeometry width="50" height="50" relative="1" as="geometry">
            <mxPoint x="1100" y="527.5" as="sourcePoint" />
            <mxPoint x="1150" y="477.5" as="targetPoint" />
          </mxGeometry>
        </mxCell>
        <mxCell id="b0E-b6A70vQdtOUJ7RUX-125" value="" style="endArrow=none;html=1;rounded=0;exitX=0.5;exitY=1;exitDx=0;exitDy=0;entryX=0.5;entryY=0;entryDx=0;entryDy=0;" parent="1" source="b0E-b6A70vQdtOUJ7RUX-30" target="b0E-b6A70vQdtOUJ7RUX-108" edge="1">
          <mxGeometry width="50" height="50" relative="1" as="geometry">
            <mxPoint x="1100" y="527.5" as="sourcePoint" />
            <mxPoint x="1150" y="477.5" as="targetPoint" />
          </mxGeometry>
        </mxCell>
        <mxCell id="b0E-b6A70vQdtOUJ7RUX-126" value="" style="endArrow=none;html=1;rounded=0;exitX=1;exitY=0.5;exitDx=0;exitDy=0;entryX=0;entryY=0.5;entryDx=0;entryDy=0;" parent="1" source="b0E-b6A70vQdtOUJ7RUX-30" target="b0E-b6A70vQdtOUJ7RUX-49" edge="1">
          <mxGeometry width="50" height="50" relative="1" as="geometry">
            <mxPoint x="1100" y="527.5" as="sourcePoint" />
            <mxPoint x="1150" y="477.5" as="targetPoint" />
          </mxGeometry>
        </mxCell>
        <mxCell id="b0E-b6A70vQdtOUJ7RUX-127" value="" style="endArrow=none;html=1;rounded=0;exitX=1;exitY=0.5;exitDx=0;exitDy=0;entryX=0;entryY=0.5;entryDx=0;entryDy=0;" parent="1" source="b0E-b6A70vQdtOUJ7RUX-30" target="b0E-b6A70vQdtOUJ7RUX-47" edge="1">
          <mxGeometry width="50" height="50" relative="1" as="geometry">
            <mxPoint x="1100" y="527.5" as="sourcePoint" />
            <mxPoint x="1475" y="367.5" as="targetPoint" />
          </mxGeometry>
        </mxCell>
        <mxCell id="b0E-b6A70vQdtOUJ7RUX-128" value="" style="endArrow=none;html=1;rounded=0;exitX=0.5;exitY=0;exitDx=0;exitDy=0;entryX=0.5;entryY=1;entryDx=0;entryDy=0;" parent="1" source="b0E-b6A70vQdtOUJ7RUX-5" target="b0E-b6A70vQdtOUJ7RUX-88" edge="1">
          <mxGeometry width="50" height="50" relative="1" as="geometry">
            <mxPoint x="1100" y="687.5" as="sourcePoint" />
            <mxPoint x="1150" y="637.5" as="targetPoint" />
          </mxGeometry>
        </mxCell>
        <mxCell id="b0E-b6A70vQdtOUJ7RUX-129" value="" style="endArrow=none;html=1;rounded=0;entryX=0.5;entryY=1;entryDx=0;entryDy=0;exitX=0.5;exitY=0;exitDx=0;exitDy=0;" parent="1" source="b0E-b6A70vQdtOUJ7RUX-5" target="b0E-b6A70vQdtOUJ7RUX-89" edge="1">
          <mxGeometry width="50" height="50" relative="1" as="geometry">
            <mxPoint x="1200" y="748" as="sourcePoint" />
            <mxPoint x="1150" y="637.5" as="targetPoint" />
          </mxGeometry>
        </mxCell>
        <mxCell id="b0E-b6A70vQdtOUJ7RUX-130" value="" style="endArrow=none;html=1;rounded=0;exitX=0.5;exitY=1;exitDx=0;exitDy=0;entryX=0.5;entryY=0;entryDx=0;entryDy=0;" parent="1" source="b0E-b6A70vQdtOUJ7RUX-5" target="b0E-b6A70vQdtOUJ7RUX-90" edge="1">
          <mxGeometry width="50" height="50" relative="1" as="geometry">
            <mxPoint x="1100" y="687.5" as="sourcePoint" />
            <mxPoint x="1150" y="637.5" as="targetPoint" />
          </mxGeometry>
        </mxCell>
        <mxCell id="b0E-b6A70vQdtOUJ7RUX-131" value="" style="endArrow=none;html=1;rounded=0;exitX=0.5;exitY=0;exitDx=0;exitDy=0;entryX=0.5;entryY=1;entryDx=0;entryDy=0;" parent="1" source="b0E-b6A70vQdtOUJ7RUX-91" target="b0E-b6A70vQdtOUJ7RUX-5" edge="1">
          <mxGeometry width="50" height="50" relative="1" as="geometry">
            <mxPoint x="1100" y="687.5" as="sourcePoint" />
            <mxPoint x="1280" y="747.5" as="targetPoint" />
          </mxGeometry>
        </mxCell>
        <mxCell id="b0E-b6A70vQdtOUJ7RUX-132" value="" style="endArrow=none;html=1;rounded=0;entryX=0.5;entryY=0;entryDx=0;entryDy=0;exitX=0.5;exitY=1;exitDx=0;exitDy=0;" parent="1" source="b0E-b6A70vQdtOUJ7RUX-51" target="b0E-b6A70vQdtOUJ7RUX-29" edge="1">
          <mxGeometry width="50" height="50" relative="1" as="geometry">
            <mxPoint x="1010" y="90" as="sourcePoint" />
            <mxPoint x="1060" y="40" as="targetPoint" />
          </mxGeometry>
        </mxCell>
        <mxCell id="b0E-b6A70vQdtOUJ7RUX-133" value="" style="endArrow=none;html=1;rounded=0;exitX=0.5;exitY=0;exitDx=0;exitDy=0;entryX=0.5;entryY=1;entryDx=0;entryDy=0;" parent="1" source="b0E-b6A70vQdtOUJ7RUX-29" target="b0E-b6A70vQdtOUJ7RUX-52" edge="1">
          <mxGeometry width="50" height="50" relative="1" as="geometry">
            <mxPoint x="1010" y="90" as="sourcePoint" />
            <mxPoint x="1060" y="40" as="targetPoint" />
          </mxGeometry>
        </mxCell>
        <mxCell id="b0E-b6A70vQdtOUJ7RUX-134" value="" style="endArrow=none;html=1;rounded=0;entryX=1;entryY=0.5;entryDx=0;entryDy=0;exitX=0;exitY=0.5;exitDx=0;exitDy=0;" parent="1" source="b0E-b6A70vQdtOUJ7RUX-53" target="b0E-b6A70vQdtOUJ7RUX-29" edge="1">
          <mxGeometry width="50" height="50" relative="1" as="geometry">
            <mxPoint x="1010" y="90" as="sourcePoint" />
            <mxPoint x="1060" y="40" as="targetPoint" />
          </mxGeometry>
        </mxCell>
        <mxCell id="b0E-b6A70vQdtOUJ7RUX-135" value="" style="endArrow=none;html=1;rounded=0;entryX=1;entryY=0.5;entryDx=0;entryDy=0;exitX=0;exitY=0.5;exitDx=0;exitDy=0;" parent="1" source="b0E-b6A70vQdtOUJ7RUX-54" target="b0E-b6A70vQdtOUJ7RUX-29" edge="1">
          <mxGeometry width="50" height="50" relative="1" as="geometry">
            <mxPoint x="1010" y="90" as="sourcePoint" />
            <mxPoint x="1060" y="40" as="targetPoint" />
          </mxGeometry>
        </mxCell>
        <mxCell id="b0E-b6A70vQdtOUJ7RUX-136" value="" style="endArrow=none;html=1;rounded=0;exitX=0;exitY=0.5;exitDx=0;exitDy=0;entryX=1;entryY=0.5;entryDx=0;entryDy=0;" parent="1" source="b0E-b6A70vQdtOUJ7RUX-55" target="b0E-b6A70vQdtOUJ7RUX-29" edge="1">
          <mxGeometry width="50" height="50" relative="1" as="geometry">
            <mxPoint x="1010" y="90" as="sourcePoint" />
            <mxPoint x="1060" y="40" as="targetPoint" />
          </mxGeometry>
        </mxCell>
        <mxCell id="b0E-b6A70vQdtOUJ7RUX-137" value="" style="endArrow=none;html=1;rounded=0;entryX=0.5;entryY=1;entryDx=0;entryDy=0;exitX=0.5;exitY=0;exitDx=0;exitDy=0;" parent="1" source="b0E-b6A70vQdtOUJ7RUX-28" target="b0E-b6A70vQdtOUJ7RUX-57" edge="1">
          <mxGeometry width="50" height="50" relative="1" as="geometry">
            <mxPoint x="1230" y="-427" as="sourcePoint" />
            <mxPoint x="1280" y="-477" as="targetPoint" />
          </mxGeometry>
        </mxCell>
        <mxCell id="b0E-b6A70vQdtOUJ7RUX-138" value="" style="endArrow=none;html=1;rounded=0;exitX=0.5;exitY=0;exitDx=0;exitDy=0;entryX=0.5;entryY=1;entryDx=0;entryDy=0;" parent="1" source="b0E-b6A70vQdtOUJ7RUX-28" target="b0E-b6A70vQdtOUJ7RUX-58" edge="1">
          <mxGeometry width="50" height="50" relative="1" as="geometry">
            <mxPoint x="1230" y="-427" as="sourcePoint" />
            <mxPoint x="1280" y="-477" as="targetPoint" />
          </mxGeometry>
        </mxCell>
        <mxCell id="b0E-b6A70vQdtOUJ7RUX-139" value="" style="endArrow=none;html=1;rounded=0;exitX=0.5;exitY=0;exitDx=0;exitDy=0;entryX=0.5;entryY=1;entryDx=0;entryDy=0;" parent="1" source="b0E-b6A70vQdtOUJ7RUX-28" target="b0E-b6A70vQdtOUJ7RUX-59" edge="1">
          <mxGeometry width="50" height="50" relative="1" as="geometry">
            <mxPoint x="1230" y="-427" as="sourcePoint" />
            <mxPoint x="1280" y="-477" as="targetPoint" />
          </mxGeometry>
        </mxCell>
        <mxCell id="b0E-b6A70vQdtOUJ7RUX-140" value="" style="endArrow=none;html=1;rounded=0;exitX=0.5;exitY=0;exitDx=0;exitDy=0;entryX=0.5;entryY=1;entryDx=0;entryDy=0;" parent="1" source="b0E-b6A70vQdtOUJ7RUX-28" target="b0E-b6A70vQdtOUJ7RUX-60" edge="1">
          <mxGeometry width="50" height="50" relative="1" as="geometry">
            <mxPoint x="1230" y="-297" as="sourcePoint" />
            <mxPoint x="1280" y="-347" as="targetPoint" />
          </mxGeometry>
        </mxCell>
        <mxCell id="b0E-b6A70vQdtOUJ7RUX-141" value="" style="endArrow=none;html=1;rounded=0;entryX=0.5;entryY=0;entryDx=0;entryDy=0;exitX=0.5;exitY=1;exitDx=0;exitDy=0;" parent="1" source="b0E-b6A70vQdtOUJ7RUX-61" target="b0E-b6A70vQdtOUJ7RUX-28" edge="1">
          <mxGeometry width="50" height="50" relative="1" as="geometry">
            <mxPoint x="1230" y="-297" as="sourcePoint" />
            <mxPoint x="1280" y="-347" as="targetPoint" />
          </mxGeometry>
        </mxCell>
        <mxCell id="b0E-b6A70vQdtOUJ7RUX-142" value="" style="endArrow=none;html=1;rounded=0;exitX=1;exitY=0.5;exitDx=0;exitDy=0;entryX=0.5;entryY=1;entryDx=0;entryDy=0;" parent="1" source="b0E-b6A70vQdtOUJ7RUX-19" target="b0E-b6A70vQdtOUJ7RUX-112" edge="1">
          <mxGeometry width="50" height="50" relative="1" as="geometry">
            <mxPoint x="880" y="-500" as="sourcePoint" />
            <mxPoint x="930" y="-550" as="targetPoint" />
          </mxGeometry>
        </mxCell>
        <mxCell id="b0E-b6A70vQdtOUJ7RUX-143" value="" style="endArrow=none;html=1;rounded=0;entryX=0.5;entryY=1;entryDx=0;entryDy=0;exitX=0;exitY=0.5;exitDx=0;exitDy=0;" parent="1" source="b0E-b6A70vQdtOUJ7RUX-19" target="b0E-b6A70vQdtOUJ7RUX-111" edge="1">
          <mxGeometry width="50" height="50" relative="1" as="geometry">
            <mxPoint x="880" y="-480" as="sourcePoint" />
            <mxPoint x="930" y="-550" as="targetPoint" />
          </mxGeometry>
        </mxCell>
        <mxCell id="b0E-b6A70vQdtOUJ7RUX-144" value="" style="endArrow=none;html=1;rounded=0;exitX=0.5;exitY=0;exitDx=0;exitDy=0;entryX=0;entryY=0.5;entryDx=0;entryDy=0;" parent="1" source="b0E-b6A70vQdtOUJ7RUX-113" target="b0E-b6A70vQdtOUJ7RUX-19" edge="1">
          <mxGeometry width="50" height="50" relative="1" as="geometry">
            <mxPoint x="880" y="-320" as="sourcePoint" />
            <mxPoint x="930" y="-370" as="targetPoint" />
          </mxGeometry>
        </mxCell>
        <mxCell id="b0E-b6A70vQdtOUJ7RUX-145" value="" style="endArrow=none;html=1;rounded=0;exitX=0.5;exitY=0;exitDx=0;exitDy=0;entryX=1;entryY=0.5;entryDx=0;entryDy=0;" parent="1" source="b0E-b6A70vQdtOUJ7RUX-114" target="b0E-b6A70vQdtOUJ7RUX-19" edge="1">
          <mxGeometry width="50" height="50" relative="1" as="geometry">
            <mxPoint x="880" y="-320" as="sourcePoint" />
            <mxPoint x="880" y="-400" as="targetPoint" />
          </mxGeometry>
        </mxCell>
        <mxCell id="b0E-b6A70vQdtOUJ7RUX-146" value="" style="endArrow=none;html=1;rounded=0;exitX=0.5;exitY=0;exitDx=0;exitDy=0;entryX=0.5;entryY=1;entryDx=0;entryDy=0;" parent="1" source="b0E-b6A70vQdtOUJ7RUX-38" target="b0E-b6A70vQdtOUJ7RUX-25" edge="1">
          <mxGeometry width="50" height="50" relative="1" as="geometry">
            <mxPoint x="470" y="440" as="sourcePoint" />
            <mxPoint x="520" y="390" as="targetPoint" />
          </mxGeometry>
        </mxCell>
        <mxCell id="b0E-b6A70vQdtOUJ7RUX-147" value="" style="endArrow=none;html=1;rounded=0;exitX=0.5;exitY=0;exitDx=0;exitDy=0;entryX=0.5;entryY=1;entryDx=0;entryDy=0;" parent="1" source="b0E-b6A70vQdtOUJ7RUX-36" target="b0E-b6A70vQdtOUJ7RUX-25" edge="1">
          <mxGeometry width="50" height="50" relative="1" as="geometry">
            <mxPoint x="470" y="440" as="sourcePoint" />
            <mxPoint x="520" y="390" as="targetPoint" />
          </mxGeometry>
        </mxCell>
        <mxCell id="b0E-b6A70vQdtOUJ7RUX-148" value="" style="endArrow=none;html=1;rounded=0;exitX=0.5;exitY=0;exitDx=0;exitDy=0;entryX=0.5;entryY=1;entryDx=0;entryDy=0;" parent="1" source="b0E-b6A70vQdtOUJ7RUX-110" target="b0E-b6A70vQdtOUJ7RUX-25" edge="1">
          <mxGeometry width="50" height="50" relative="1" as="geometry">
            <mxPoint x="470" y="440" as="sourcePoint" />
            <mxPoint x="520" y="390" as="targetPoint" />
          </mxGeometry>
        </mxCell>
        <mxCell id="b0E-b6A70vQdtOUJ7RUX-149" value="" style="endArrow=none;html=1;rounded=0;exitX=0.5;exitY=0;exitDx=0;exitDy=0;entryX=0.5;entryY=1;entryDx=0;entryDy=0;" parent="1" source="b0E-b6A70vQdtOUJ7RUX-41" target="b0E-b6A70vQdtOUJ7RUX-25" edge="1">
          <mxGeometry width="50" height="50" relative="1" as="geometry">
            <mxPoint x="470" y="440" as="sourcePoint" />
            <mxPoint x="520" y="390" as="targetPoint" />
          </mxGeometry>
        </mxCell>
        <mxCell id="b0E-b6A70vQdtOUJ7RUX-150" value="" style="endArrow=none;html=1;rounded=0;exitX=0.5;exitY=0;exitDx=0;exitDy=0;entryX=0.5;entryY=1;entryDx=0;entryDy=0;" parent="1" source="b0E-b6A70vQdtOUJ7RUX-109" target="b0E-b6A70vQdtOUJ7RUX-25" edge="1">
          <mxGeometry width="50" height="50" relative="1" as="geometry">
            <mxPoint x="470" y="440" as="sourcePoint" />
            <mxPoint x="520" y="390" as="targetPoint" />
          </mxGeometry>
        </mxCell>
        <mxCell id="b0E-b6A70vQdtOUJ7RUX-151" value="" style="endArrow=none;html=1;rounded=0;exitX=0.5;exitY=0;exitDx=0;exitDy=0;" parent="1" source="b0E-b6A70vQdtOUJ7RUX-43" edge="1">
          <mxGeometry width="50" height="50" relative="1" as="geometry">
            <mxPoint x="470" y="440" as="sourcePoint" />
            <mxPoint x="420" y="350" as="targetPoint" />
          </mxGeometry>
        </mxCell>
        <mxCell id="b0E-b6A70vQdtOUJ7RUX-152" value="" style="endArrow=none;html=1;rounded=0;exitX=0.5;exitY=0;exitDx=0;exitDy=0;entryX=0.5;entryY=1;entryDx=0;entryDy=0;" parent="1" source="b0E-b6A70vQdtOUJ7RUX-13" target="b0E-b6A70vQdtOUJ7RUX-115" edge="1">
          <mxGeometry width="50" height="50" relative="1" as="geometry">
            <mxPoint x="-60" y="260" as="sourcePoint" />
            <mxPoint x="-10" y="210" as="targetPoint" />
          </mxGeometry>
        </mxCell>
        <mxCell id="b0E-b6A70vQdtOUJ7RUX-153" value="" style="endArrow=none;html=1;rounded=0;exitX=0.5;exitY=0;exitDx=0;exitDy=0;entryX=0.5;entryY=1;entryDx=0;entryDy=0;" parent="1" source="b0E-b6A70vQdtOUJ7RUX-13" target="b0E-b6A70vQdtOUJ7RUX-116" edge="1">
          <mxGeometry width="50" height="50" relative="1" as="geometry">
            <mxPoint x="-60" y="260" as="sourcePoint" />
            <mxPoint x="-10" y="210" as="targetPoint" />
          </mxGeometry>
        </mxCell>
        <mxCell id="b0E-b6A70vQdtOUJ7RUX-154" value="" style="endArrow=none;html=1;rounded=0;exitX=0.5;exitY=0;exitDx=0;exitDy=0;entryX=0.5;entryY=1;entryDx=0;entryDy=0;" parent="1" source="b0E-b6A70vQdtOUJ7RUX-117" target="b0E-b6A70vQdtOUJ7RUX-13" edge="1">
          <mxGeometry width="50" height="50" relative="1" as="geometry">
            <mxPoint x="-60" y="260" as="sourcePoint" />
            <mxPoint x="-10" y="210" as="targetPoint" />
          </mxGeometry>
        </mxCell>
        <mxCell id="b0E-b6A70vQdtOUJ7RUX-155" value="" style="endArrow=none;html=1;rounded=0;exitX=0.5;exitY=0;exitDx=0;exitDy=0;" parent="1" source="b0E-b6A70vQdtOUJ7RUX-118" edge="1">
          <mxGeometry width="50" height="50" relative="1" as="geometry">
            <mxPoint x="-60" y="260" as="sourcePoint" />
            <mxPoint x="80" y="360" as="targetPoint" />
          </mxGeometry>
        </mxCell>
        <mxCell id="b0E-b6A70vQdtOUJ7RUX-156" value="" style="endArrow=none;html=1;rounded=0;exitX=0.5;exitY=0;exitDx=0;exitDy=0;entryX=0.5;entryY=1;entryDx=0;entryDy=0;" parent="1" source="b0E-b6A70vQdtOUJ7RUX-84" target="b0E-b6A70vQdtOUJ7RUX-31" edge="1">
          <mxGeometry width="50" height="50" relative="1" as="geometry">
            <mxPoint x="-60" y="260" as="sourcePoint" />
            <mxPoint x="-10" y="210" as="targetPoint" />
          </mxGeometry>
        </mxCell>
        <mxCell id="b0E-b6A70vQdtOUJ7RUX-157" value="" style="endArrow=none;html=1;rounded=0;exitX=0.5;exitY=0;exitDx=0;exitDy=0;entryX=0.5;entryY=1;entryDx=0;entryDy=0;" parent="1" source="b0E-b6A70vQdtOUJ7RUX-83" target="b0E-b6A70vQdtOUJ7RUX-31" edge="1">
          <mxGeometry width="50" height="50" relative="1" as="geometry">
            <mxPoint x="-60" y="260" as="sourcePoint" />
            <mxPoint x="-10" y="210" as="targetPoint" />
          </mxGeometry>
        </mxCell>
        <mxCell id="b0E-b6A70vQdtOUJ7RUX-158" value="" style="endArrow=none;html=1;rounded=0;exitX=0;exitY=0.5;exitDx=0;exitDy=0;entryX=1;entryY=0.5;entryDx=0;entryDy=0;" parent="1" source="b0E-b6A70vQdtOUJ7RUX-31" target="b0E-b6A70vQdtOUJ7RUX-82" edge="1">
          <mxGeometry width="50" height="50" relative="1" as="geometry">
            <mxPoint x="-60" y="260" as="sourcePoint" />
            <mxPoint x="-10" y="210" as="targetPoint" />
          </mxGeometry>
        </mxCell>
        <mxCell id="b0E-b6A70vQdtOUJ7RUX-159" value="" style="endArrow=none;html=1;rounded=0;exitX=1;exitY=0.5;exitDx=0;exitDy=0;entryX=0;entryY=0.5;entryDx=0;entryDy=0;" parent="1" source="b0E-b6A70vQdtOUJ7RUX-81" target="b0E-b6A70vQdtOUJ7RUX-31" edge="1">
          <mxGeometry width="50" height="50" relative="1" as="geometry">
            <mxPoint x="-60" y="260" as="sourcePoint" />
            <mxPoint x="-10" y="210" as="targetPoint" />
          </mxGeometry>
        </mxCell>
        <mxCell id="b0E-b6A70vQdtOUJ7RUX-160" value="" style="endArrow=none;html=1;rounded=0;exitX=1;exitY=0.5;exitDx=0;exitDy=0;entryX=0;entryY=0.5;entryDx=0;entryDy=0;" parent="1" source="b0E-b6A70vQdtOUJ7RUX-80" target="b0E-b6A70vQdtOUJ7RUX-31" edge="1">
          <mxGeometry width="50" height="50" relative="1" as="geometry">
            <mxPoint x="-60" y="260" as="sourcePoint" />
            <mxPoint x="-10" y="210" as="targetPoint" />
          </mxGeometry>
        </mxCell>
        <mxCell id="b0E-b6A70vQdtOUJ7RUX-161" value="" style="endArrow=none;html=1;rounded=0;exitX=1;exitY=0.5;exitDx=0;exitDy=0;entryX=0;entryY=0.5;entryDx=0;entryDy=0;" parent="1" source="b0E-b6A70vQdtOUJ7RUX-79" target="b0E-b6A70vQdtOUJ7RUX-32" edge="1">
          <mxGeometry width="50" height="50" relative="1" as="geometry">
            <mxPoint x="-60" y="70" as="sourcePoint" />
            <mxPoint x="-10" y="20" as="targetPoint" />
          </mxGeometry>
        </mxCell>
        <mxCell id="b0E-b6A70vQdtOUJ7RUX-162" value="" style="endArrow=none;html=1;rounded=0;exitX=1;exitY=0.5;exitDx=0;exitDy=0;entryX=0;entryY=0.5;entryDx=0;entryDy=0;" parent="1" source="b0E-b6A70vQdtOUJ7RUX-78" target="b0E-b6A70vQdtOUJ7RUX-32" edge="1">
          <mxGeometry width="50" height="50" relative="1" as="geometry">
            <mxPoint x="-60" y="70" as="sourcePoint" />
            <mxPoint x="-10" y="20" as="targetPoint" />
          </mxGeometry>
        </mxCell>
        <mxCell id="b0E-b6A70vQdtOUJ7RUX-163" value="" style="endArrow=none;html=1;rounded=0;exitX=1;exitY=0.5;exitDx=0;exitDy=0;entryX=0;entryY=0.5;entryDx=0;entryDy=0;" parent="1" source="b0E-b6A70vQdtOUJ7RUX-77" target="b0E-b6A70vQdtOUJ7RUX-32" edge="1">
          <mxGeometry width="50" height="50" relative="1" as="geometry">
            <mxPoint x="-60" y="70" as="sourcePoint" />
            <mxPoint x="-10" y="20" as="targetPoint" />
          </mxGeometry>
        </mxCell>
        <mxCell id="b0E-b6A70vQdtOUJ7RUX-164" value="" style="endArrow=none;html=1;rounded=0;exitX=0.5;exitY=0;exitDx=0;exitDy=0;entryX=0.5;entryY=1;entryDx=0;entryDy=0;" parent="1" source="b0E-b6A70vQdtOUJ7RUX-32" target="b0E-b6A70vQdtOUJ7RUX-85" edge="1">
          <mxGeometry width="50" height="50" relative="1" as="geometry">
            <mxPoint x="-60" y="70" as="sourcePoint" />
            <mxPoint x="-10" y="20" as="targetPoint" />
          </mxGeometry>
        </mxCell>
        <mxCell id="b0E-b6A70vQdtOUJ7RUX-165" value="" style="endArrow=none;html=1;rounded=0;exitX=0.5;exitY=0;exitDx=0;exitDy=0;entryX=0.5;entryY=1;entryDx=0;entryDy=0;" parent="1" source="b0E-b6A70vQdtOUJ7RUX-32" target="b0E-b6A70vQdtOUJ7RUX-86" edge="1">
          <mxGeometry width="50" height="50" relative="1" as="geometry">
            <mxPoint x="-60" y="70" as="sourcePoint" />
            <mxPoint x="-10" y="20" as="targetPoint" />
          </mxGeometry>
        </mxCell>
        <mxCell id="ZdL45OkBWxNcmNOsjjwY-1" value="" style="group" parent="1" vertex="1" connectable="0">
          <mxGeometry x="210" y="532.5" width="90" height="65" as="geometry" />
        </mxCell>
        <mxCell id="b0E-b6A70vQdtOUJ7RUX-44" value="&lt;code data-end=&quot;626&quot; data-start=&quot;619&quot;&gt;mufaj&lt;/code&gt;" style="ellipse;whiteSpace=wrap;html=1;" parent="ZdL45OkBWxNcmNOsjjwY-1" vertex="1">
          <mxGeometry x="10" y="7.5" width="70" height="50" as="geometry" />
        </mxCell>
        <mxCell id="b0E-b6A70vQdtOUJ7RUX-110" value="" style="ellipse;whiteSpace=wrap;html=1;fillColor=none;" parent="ZdL45OkBWxNcmNOsjjwY-1" vertex="1">
          <mxGeometry width="90" height="65" as="geometry" />
        </mxCell>
        <mxCell id="fD3KOZY-YntwcFFtsIP3-5" value="" style="endArrow=none;html=1;rounded=0;exitX=1;exitY=0;exitDx=0;exitDy=0;entryX=0;entryY=0.5;entryDx=0;entryDy=0;endFill=0;startArrow=doubleBlock;startFill=1;" parent="1" source="b0E-b6A70vQdtOUJ7RUX-25" target="b0E-b6A70vQdtOUJ7RUX-6" edge="1">
          <mxGeometry width="50" height="50" relative="1" as="geometry">
            <mxPoint x="460" y="10" as="sourcePoint" />
            <mxPoint x="510" y="-40" as="targetPoint" />
          </mxGeometry>
        </mxCell>
        <mxCell id="fD3KOZY-YntwcFFtsIP3-6" value="" style="endArrow=block;html=1;rounded=0;exitX=1;exitY=0.5;exitDx=0;exitDy=0;entryX=0;entryY=0;entryDx=0;entryDy=0;endFill=1;" parent="1" source="b0E-b6A70vQdtOUJ7RUX-9" target="b0E-b6A70vQdtOUJ7RUX-25" edge="1">
          <mxGeometry width="50" height="50" relative="1" as="geometry">
            <mxPoint x="460" y="10" as="sourcePoint" />
            <mxPoint x="510" y="-40" as="targetPoint" />
          </mxGeometry>
        </mxCell>
        <mxCell id="fD3KOZY-YntwcFFtsIP3-7" value="vezetek_nev" style="ellipse;whiteSpace=wrap;html=1;" parent="1" vertex="1">
          <mxGeometry x="1320" y="250" width="70" height="50" as="geometry" />
        </mxCell>
        <mxCell id="fD3KOZY-YntwcFFtsIP3-8" value="kereszt_nev" style="ellipse;whiteSpace=wrap;html=1;" parent="1" vertex="1">
          <mxGeometry x="1320" y="340" width="70" height="50" as="geometry" />
        </mxCell>
        <mxCell id="fD3KOZY-YntwcFFtsIP3-9" value="" style="endArrow=none;html=1;rounded=0;entryX=0;entryY=0.5;entryDx=0;entryDy=0;exitX=1;exitY=0.5;exitDx=0;exitDy=0;" parent="1" source="b0E-b6A70vQdtOUJ7RUX-50" target="fD3KOZY-YntwcFFtsIP3-8" edge="1">
          <mxGeometry width="50" height="50" relative="1" as="geometry">
            <mxPoint x="1430" y="382.5" as="sourcePoint" />
            <mxPoint x="1480" y="332.5" as="targetPoint" />
          </mxGeometry>
        </mxCell>
        <mxCell id="fD3KOZY-YntwcFFtsIP3-10" value="" style="endArrow=none;html=1;rounded=0;entryX=0;entryY=0.5;entryDx=0;entryDy=0;exitX=1;exitY=0.5;exitDx=0;exitDy=0;" parent="1" source="b0E-b6A70vQdtOUJ7RUX-50" target="fD3KOZY-YntwcFFtsIP3-7" edge="1">
          <mxGeometry width="50" height="50" relative="1" as="geometry">
            <mxPoint x="1430" y="382.5" as="sourcePoint" />
            <mxPoint x="1480" y="332.5" as="targetPoint" />
          </mxGeometry>
        </mxCell>
        <mxCell id="fD3KOZY-YntwcFFtsIP3-12" value="vezetek_nev" style="ellipse;whiteSpace=wrap;html=1;" parent="1" vertex="1">
          <mxGeometry x="-550" y="340" width="70" height="50" as="geometry" />
        </mxCell>
        <mxCell id="fD3KOZY-YntwcFFtsIP3-13" value="kereszt_nev" style="ellipse;whiteSpace=wrap;html=1;" parent="1" vertex="1">
          <mxGeometry x="-550" y="250" width="70" height="50" as="geometry" />
        </mxCell>
        <mxCell id="fD3KOZY-YntwcFFtsIP3-14" value="" style="endArrow=none;html=1;rounded=0;entryX=1;entryY=0.5;entryDx=0;entryDy=0;exitX=0;exitY=0.5;exitDx=0;exitDy=0;" parent="1" source="b0E-b6A70vQdtOUJ7RUX-81" target="fD3KOZY-YntwcFFtsIP3-13" edge="1">
          <mxGeometry width="50" height="50" relative="1" as="geometry">
            <mxPoint x="-565" y="418" as="sourcePoint" />
            <mxPoint x="-480" y="390" as="targetPoint" />
          </mxGeometry>
        </mxCell>
        <mxCell id="fD3KOZY-YntwcFFtsIP3-15" value="" style="endArrow=none;html=1;rounded=0;entryX=1;entryY=0.5;entryDx=0;entryDy=0;exitX=0;exitY=0.5;exitDx=0;exitDy=0;" parent="1" source="b0E-b6A70vQdtOUJ7RUX-81" target="fD3KOZY-YntwcFFtsIP3-12" edge="1">
          <mxGeometry width="50" height="50" relative="1" as="geometry">
            <mxPoint x="-565" y="418" as="sourcePoint" />
            <mxPoint x="-480" y="390" as="targetPoint" />
          </mxGeometry>
        </mxCell>
        <mxCell id="fD3KOZY-YntwcFFtsIP3-17" value="" style="group" parent="1" vertex="1" connectable="0">
          <mxGeometry x="1079" y="392.5" width="90" height="65" as="geometry" />
        </mxCell>
        <mxCell id="b0E-b6A70vQdtOUJ7RUX-46" value="&lt;code data-end=&quot;1152&quot; data-start=&quot;1141&quot;&gt;szerepkor&lt;/code&gt;" style="ellipse;whiteSpace=wrap;html=1;" parent="fD3KOZY-YntwcFFtsIP3-17" vertex="1">
          <mxGeometry x="10" y="7.5" width="70" height="50" as="geometry" />
        </mxCell>
        <mxCell id="b0E-b6A70vQdtOUJ7RUX-108" value="" style="ellipse;whiteSpace=wrap;html=1;fillColor=none;" parent="fD3KOZY-YntwcFFtsIP3-17" vertex="1">
          <mxGeometry width="90" height="65" as="geometry" />
        </mxCell>
      </root>
    </mxGraphModel>
  </diagram>
</mxfile>
